<?xml version="1.0" encoding="utf-8"?>
<!-- Generator: Adobe Illustrator 24.0.0, SVG Export Plug-In . SVG Version: 6.00 Build 0)  -->
<svg version="1.1" id="Layer_1" xmlns="http://www.w3.org/2000/svg" xmlns:xlink="http://www.w3.org/1999/xlink" x="0px" y="0px"
	 viewBox="0 0 60 60" style="enable-background:new 0 0 60 60;" xml:space="preserve">
<style type="text/css">
	.st0{fill:#131F35;}
	.st1{fill:#99C93E;}
</style>
<path class="st0" d="M48.98,56.85H4.66c-0.69,0-1.31-0.35-1.66-0.95c-0.35-0.59-0.36-1.31-0.03-1.91l4.78-8.68
	c0.14-0.26,0.41-0.42,0.71-0.42H44.7c0.28,0,0.54,0.15,0.69,0.39l5.24,8.64c0.36,0.6,0.38,1.33,0.03,1.95
	C50.31,56.48,49.68,56.85,48.98,56.85z M8.94,46.5l-4.56,8.26c-0.08,0.14-0.03,0.26,0,0.31c0.03,0.06,0.12,0.16,0.27,0.16h44.31
	c0.16,0,0.24-0.1,0.28-0.16c0.03-0.06,0.08-0.18,0-0.32l-5-8.25H8.94z"/>
<path class="st0" d="M40.77,50.17H25.36c-0.44,0-0.8-0.36-0.8-0.8c0-0.44,0.36-0.8,0.8-0.8h15.41c0.44,0,0.8,0.36,0.8,0.8
	C41.58,49.81,41.22,50.17,40.77,50.17z"/>
<path class="st0" d="M14.9,50.17h-2.6c-0.44,0-0.8-0.36-0.8-0.8c0-0.44,0.36-0.8,0.8-0.8h2.6c0.44,0,0.8,0.36,0.8,0.8
	C15.7,49.81,15.34,50.17,14.9,50.17z"/>
<path class="st0" d="M21.93,50.17h-2.6c-0.44,0-0.8-0.36-0.8-0.8c0-0.44,0.36-0.8,0.8-0.8h2.6c0.44,0,0.8,0.36,0.8,0.8
	C22.73,49.81,22.37,50.17,21.93,50.17z"/>
<path class="st0" d="M31.47,53.36H9.04c-0.44,0-0.8-0.36-0.8-0.8s0.36-0.8,0.8-0.8h22.44c0.44,0,0.8,0.36,0.8,0.8
	S31.92,53.36,31.47,53.36z"/>
<path class="st0" d="M37.66,53.36h-2.55c-0.44,0-0.8-0.36-0.8-0.8s0.36-0.8,0.8-0.8h2.55c0.44,0,0.8,0.36,0.8,0.8
	S38.1,53.36,37.66,53.36z"/>
<path class="st0" d="M44.3,53.36h-2.53c-0.44,0-0.8-0.36-0.8-0.8s0.36-0.8,0.8-0.8h2.53c0.44,0,0.8,0.36,0.8,0.8
	S44.74,53.36,44.3,53.36z"/>
<path class="st0" d="M48.01,42.19H4.86C2.18,42.19,0,39.94,0,37.16V9.22c0-2.71,2.11-4.91,4.7-4.91h34.86c0.44,0,0.8,0.36,0.8,0.8
	s-0.36,0.8-0.8,0.8H4.7C3,5.92,1.61,7.4,1.61,9.22v27.94c0,1.89,1.46,3.42,3.25,3.42h43.16c1.79,0,3.25-1.53,3.25-3.42V9.22
	c0-1.82-1.39-3.3-3.09-3.3h-3.61c-0.44,0-0.8-0.36-0.8-0.8s0.36-0.8,0.8-0.8h3.61c2.59,0,4.7,2.2,4.7,4.91v27.94
	C52.87,39.94,50.69,42.19,48.01,42.19z"/>
<rect x="24.76" y="9.48" class="st1" width="22.51" height="26.95"/>
<rect x="14.96" y="10.26" class="st1" width="3.03" height="26.47"/>
<path class="st0" d="M22.16,38.23h-8.11c-0.44,0-0.8-0.36-0.8-0.8s0.36-0.8,0.8-0.8h8.11c0.44,0,0.8,0.36,0.8,0.8
	S22.6,38.23,22.16,38.23z"/>
<path class="st0" d="M47.63,38.23H25.55c-0.44,0-0.8-0.36-0.8-0.8s0.36-0.8,0.8-0.8h21.28V10.29H6.53v26.34h4.02
	c0.44,0,0.8,0.36,0.8,0.8s-0.36,0.8-0.8,0.8H5.72c-0.44,0-0.8-0.36-0.8-0.8V9.48c0-0.44,0.36-0.8,0.8-0.8h41.9
	c0.44,0,0.8,0.36,0.8,0.8v27.95C48.43,37.87,48.07,38.23,47.63,38.23z"/>
<path class="st0" d="M56.97,46.22c-1.67,0-3.03,1.36-3.03,3.03v4.06c0,1.67,1.36,3.03,3.03,3.03c1.67,0,3.03-1.36,3.03-3.03v-4.06
	C60,47.59,58.64,46.22,56.97,46.22z M57.45,50.11c0,0.27-0.22,0.48-0.48,0.48s-0.48-0.22-0.48-0.48v-1.67
	c0-0.27,0.22-0.48,0.48-0.48s0.48,0.22,0.48,0.48V50.11z"/>
</svg>
