<?xml version="1.0" encoding="utf-8"?>
<!-- Generator: Adobe Illustrator 24.0.0, SVG Export Plug-In . SVG Version: 6.00 Build 0)  -->
<svg version="1.1" id="Layer_1" xmlns="http://www.w3.org/2000/svg" xmlns:xlink="http://www.w3.org/1999/xlink" x="0px" y="0px"
	 viewBox="0 0 60 60" style="enable-background:new 0 0 60 60;" xml:space="preserve">
<style type="text/css">
	.st0{fill:#99C93E;}
	.st1{fill:#131F35;}
	.st2{fill:#FFFFFF;}
</style>
<g>
	<rect x="0.04" y="51.1" class="st0" width="59.67" height="4.09"/>
	<path class="st0" d="M58.99,14.02v34.77c0,1.66-1.34,3-3,3h-6.46V10.58h6.03C57.45,10.58,58.99,12.12,58.99,14.02z"/>
	<path class="st1" d="M17.13,52.76H5.6c-3.06,0-5.55-2.58-5.55-5.75v-31.6c0-3.1,2.41-5.62,5.38-5.62h39.42
		c0.54,0,0.97,0.43,0.97,0.97c0,0.54-0.43,0.97-0.97,0.97H5.43c-1.89,0-3.44,1.65-3.44,3.68v31.6c0,2.1,1.62,3.81,3.61,3.81h11.53
		c0.54,0,0.97,0.43,0.97,0.97C18.1,52.32,17.67,52.76,17.13,52.76z"/>
	<path class="st1" d="M54.41,52.76H29.32c-0.54,0-0.97-0.43-0.97-0.97c0-0.54,0.43-0.97,0.97-0.97h25.08c1.99,0,3.61-1.71,3.61-3.81
		v-31.6c0-2.03-1.54-3.68-3.44-3.68H50.5c-0.54,0-0.97-0.43-0.97-0.97c0-0.54,0.43-0.97,0.97-0.97h4.08c2.97,0,5.38,2.52,5.38,5.62
		v31.6C59.96,50.18,57.47,52.76,54.41,52.76z"/>
	<path class="st1" d="M39.44,11.74c-0.06,0-0.11,0-0.17-0.01c-0.53-0.09-0.88-0.59-0.79-1.12l0.67-3.85H20.85l0.65,3.85
		c0.09,0.53-0.27,1.03-0.8,1.12c-0.53,0.08-1.03-0.27-1.12-0.8l-0.84-4.99c-0.05-0.28,0.03-0.57,0.22-0.79
		c0.18-0.22,0.46-0.34,0.74-0.34h20.6c0.29,0,0.56,0.13,0.74,0.35c0.18,0.22,0.26,0.51,0.21,0.79l-0.87,4.99
		C40.31,11.4,39.9,11.74,39.44,11.74z"/>
	<path class="st0" d="M38.91,18.38c-7.12,0-12.9,5.77-12.9,12.9c0,7.12,5.77,12.9,12.9,12.9c7.12,0,12.9-5.77,12.9-12.9
		C51.81,24.16,46.03,18.38,38.91,18.38z M38.91,38.57c-4.03,0-7.29-3.26-7.29-7.29c0-4.03,3.26-7.29,7.29-7.29
		c4.03,0,7.29,3.26,7.29,7.29C46.2,35.3,42.94,38.57,38.91,38.57z"/>
	<path class="st1" d="M38.91,39.54c-4.56,0-8.26-3.71-8.26-8.26s3.71-8.26,8.26-8.26s8.26,3.71,8.26,8.26S43.47,39.54,38.91,39.54z
		 M38.91,24.96c-3.48,0-6.32,2.84-6.32,6.32s2.84,6.32,6.32,6.32s6.32-2.84,6.32-6.32S42.4,24.96,38.91,24.96z"/>
	<path class="st1" d="M9.68,27.23c-2.51,0-4.56-2.05-4.56-4.56s2.05-4.56,4.56-4.56s4.56,2.05,4.56,4.56S12.2,27.23,9.68,27.23z
		 M9.68,20.05c-1.44,0-2.62,1.17-2.62,2.62c0,1.44,1.17,2.62,2.62,2.62s2.62-1.17,2.62-2.62C12.3,21.23,11.13,20.05,9.68,20.05z"/>
	<g>
		<line class="st2" x1="1.02" y1="22.67" x2="6.1" y2="22.67"/>
		<path class="st1" d="M6.09,23.64H1.02c-0.54,0-0.97-0.43-0.97-0.97s0.43-0.97,0.97-0.97h5.07c0.54,0,0.97,0.43,0.97,0.97
			S6.63,23.64,6.09,23.64z"/>
	</g>
	<g>
		<line class="st2" x1="17.13" y1="22.67" x2="29.32" y2="22.67"/>
		<path class="st1" d="M29.32,23.64H17.13c-0.54,0-0.97-0.43-0.97-0.97s0.43-0.97,0.97-0.97h12.19c0.54,0,0.97,0.43,0.97,0.97
			S29.86,23.64,29.32,23.64z"/>
	</g>
	<g>
		<line class="st2" x1="48.51" y1="22.67" x2="58.99" y2="22.67"/>
		<path class="st1" d="M58.99,23.64H48.51c-0.54,0-0.97-0.43-0.97-0.97s0.43-0.97,0.97-0.97h10.48c0.54,0,0.97,0.43,0.97,0.97
			S59.53,23.64,58.99,23.64z"/>
	</g>
	<path class="st1" d="M12.29,11.59H8.92c-1.12,0-2.04-0.92-2.04-2.04V9.12C6.88,8,7.8,7.09,8.92,7.09h3.37
		c1.12,0,2.04,0.92,2.04,2.04v0.44C14.33,10.68,13.41,11.59,12.29,11.59z"/>
	<g>
		<line class="st2" x1="1.42" y1="38.57" x2="21.67" y2="38.57"/>
		<path class="st1" d="M21.67,39.54H1.42c-0.54,0-0.97-0.43-0.97-0.97c0-0.54,0.43-0.97,0.97-0.97h20.25c0.54,0,0.97,0.43,0.97,0.97
			C22.64,39.11,22.21,39.54,21.67,39.54z"/>
	</g>
	<path class="st1" d="M38.91,45.47c-7.82,0-14.19-6.37-14.19-14.19s6.37-14.19,14.19-14.19S53.1,23.45,53.1,31.28
		S46.74,45.47,38.91,45.47z M38.91,19.68c-6.4,0-11.6,5.2-11.6,11.6c0,6.4,5.2,11.6,11.6,11.6c6.4,0,11.6-5.2,11.6-11.6
		C50.51,24.88,45.31,19.68,38.91,19.68z"/>
</g>
</svg>
