<?xml version="1.0" encoding="utf-8"?>
<!-- Generator: Adobe Illustrator 24.0.0, SVG Export Plug-In . SVG Version: 6.00 Build 0)  -->
<svg version="1.1" id="Layer_1" xmlns="http://www.w3.org/2000/svg" xmlns:xlink="http://www.w3.org/1999/xlink" x="0px" y="0px"
	 viewBox="0 0 60 60" style="enable-background:new 0 0 60 60;" xml:space="preserve">
<style type="text/css">
	.st0{fill:#99C93E;}
	.st1{fill:#131F35;}
</style>
<g>
	<rect x="4.9" y="43.24" transform="matrix(0.9743 -0.225 0.225 0.9743 -9.2426 8.0015)" class="st0" width="51.16" height="2.61"/>
	<g>
		<polyline class="st0" points="53.96,34.64 59.52,33.36 58.56,29.19 55.78,29.83 50.93,8.84 48.15,9.48 49.28,14.38 		"/>
		<path class="st1" d="M59.62,33.76l-5.56,1.28l-0.19-0.81l5.15-1.19l-0.78-3.36l-2.37,0.55c-0.22,0.05-0.45-0.09-0.5-0.31
			L50.62,9.34l-1.97,0.46l1.04,4.49l-0.81,0.19l-1.13-4.89c-0.05-0.22,0.09-0.45,0.31-0.5l2.78-0.64c0.22-0.05,0.45,0.09,0.5,0.31
			l4.76,20.59l2.37-0.55c0.22-0.05,0.45,0.09,0.5,0.31l0.96,4.16C59.98,33.48,59.84,33.71,59.62,33.76z"/>
	</g>
	<path class="st1" d="M13.45,47.77l-6.02,1.39c-1.19,0.28-2.39-0.47-2.67-1.67L0.12,27.38c-0.28-1.2,0.47-2.39,1.67-2.67l24.86-5.74
		c0.33-0.08,0.67,0.13,0.74,0.47c0.08,0.33-0.13,0.67-0.47,0.74L2.07,25.92c-0.53,0.12-0.86,0.65-0.74,1.18l4.65,20.12
		c0.12,0.53,0.65,0.86,1.18,0.74l6.02-1.39c0.33-0.08,0.67,0.13,0.74,0.47S13.79,47.69,13.45,47.77z"/>
	<path class="st1" d="M53.11,38.61L23.4,45.47c-0.33,0.08-0.67-0.13-0.74-0.47c-0.08-0.33,0.13-0.67,0.47-0.74l29.71-6.86
		c0.59-0.14,0.96-0.73,0.83-1.32l-4.84-20.96L31.57,19.1c-0.33,0.08-0.67-0.13-0.74-0.47s0.13-0.67,0.47-0.74l17.85-4.12
		c0.33-0.08,0.67,0.13,0.74,0.47l4.98,21.56C55.16,37.06,54.37,38.32,53.11,38.61z"/>
	<path class="st1" d="M16.76,42.33c-4.29,0.99-8.59-1.69-9.58-5.99s1.69-8.59,5.99-9.58s8.59,1.69,9.58,5.99
		S21.06,41.34,16.76,42.33z M13.45,27.97c-3.63,0.84-5.89,4.47-5.06,8.09c0.84,3.63,4.47,5.89,8.09,5.06
		c3.63-0.84,5.89-4.47,5.06-8.09S17.07,27.13,13.45,27.97z"/>
	<g>
		<path class="st1" d="M16.76,42.33c-0.33,0.08-0.67-0.13-0.74-0.47l-1.66-7.18c-0.08-0.33,0.13-0.67,0.47-0.74
			c0.33-0.08,0.67,0.13,0.74,0.47l1.66,7.18C17.31,41.92,17.1,42.25,16.76,42.33z"/>
		<path class="st1" d="M21.75,38.33c-0.13,0.03-0.28,0.02-0.41-0.05L14.7,35.1c-0.31-0.15-0.44-0.52-0.29-0.83
			c0.15-0.31,0.52-0.44,0.83-0.29l6.65,3.18c0.31,0.15,0.44,0.52,0.29,0.83C22.09,38.17,21.93,38.29,21.75,38.33z"/>
		<path class="st1" d="M15.1,35.15c-0.28,0.06-0.57-0.07-0.7-0.33c-0.15-0.31-0.02-0.68,0.29-0.83l6.63-3.22
			c0.31-0.15,0.68-0.02,0.83,0.29c0.15,0.31,0.02,0.68-0.29,0.83l-6.63,3.22C15.19,35.12,15.15,35.14,15.1,35.15z"/>
		<path class="st1" d="M15.1,35.15c-0.09,0.02-0.18,0.02-0.28,0c-0.33-0.08-0.54-0.41-0.47-0.74l1.62-7.19
			c0.07-0.33,0.41-0.55,0.74-0.47c0.33,0.08,0.54,0.41,0.47,0.74l-1.62,7.19C15.52,34.92,15.33,35.1,15.1,35.15z"/>
		<path class="st1" d="M15.11,35.15c-0.23,0.05-0.47-0.02-0.63-0.22l-4.61-5.75c-0.21-0.27-0.17-0.66,0.1-0.87
			c0.27-0.22,0.66-0.17,0.87,0.1l4.61,5.75c0.21,0.27,0.17,0.66-0.1,0.87C15.28,35.09,15.19,35.13,15.11,35.15z"/>
		<path class="st1" d="M15.11,35.15c-0.04,0.01-0.09,0.02-0.14,0.02L7.6,35.18c-0.34,0-0.62-0.28-0.62-0.62
			c0-0.34,0.28-0.62,0.62-0.62l7.37-0.02c0.34,0,0.62,0.28,0.62,0.62C15.59,34.84,15.38,35.09,15.11,35.15z"/>
		<path class="st1" d="M10.52,40.92c-0.18,0.04-0.37,0-0.53-0.12c-0.27-0.21-0.31-0.6-0.1-0.87l4.58-5.77
			c0.21-0.27,0.6-0.31,0.87-0.1c0.27,0.21,0.31,0.6,0.1,0.87l-4.58,5.77C10.78,40.82,10.66,40.89,10.52,40.92z"/>
	</g>
	<g>
		<circle class="st0" cx="14.97" cy="34.54" r="2.93"/>
		<path class="st1" d="M15.72,37.8c-1.8,0.42-3.6-0.71-4.01-2.51c-0.42-1.8,0.71-3.6,2.51-4.01s3.6,0.71,4.01,2.51
			C18.64,35.59,17.52,37.39,15.72,37.8z M14.4,32.09c-1.35,0.31-2.2,1.67-1.89,3.02c0.31,1.35,1.67,2.2,3.02,1.89
			s2.2-1.67,1.89-3.02C17.11,32.62,15.75,31.78,14.4,32.09z"/>
	</g>
	<path class="st1" d="M40.18,36.92c-4.29,0.99-8.59-1.69-9.58-5.99s1.69-8.59,5.99-9.58c1.19-0.27,2.38-0.28,3.56-0.01
		c0.33,0.08,0.54,0.41,0.47,0.74c-0.08,0.33-0.41,0.55-0.74,0.47c-0.99-0.22-2-0.22-3,0.01c-3.63,0.84-5.89,4.47-5.06,8.09
		c0.84,3.63,4.47,5.89,8.09,5.06s5.89-4.47,5.06-8.09c-0.11-0.49-0.28-0.97-0.5-1.43c-0.15-0.31-0.02-0.68,0.29-0.83
		c0.3-0.15,0.68-0.02,0.83,0.29c0.26,0.53,0.46,1.1,0.59,1.69C47.16,31.63,44.48,35.93,40.18,36.92z"/>
	<g>
		<path class="st1" d="M40.18,36.92c-0.33,0.08-0.67-0.13-0.74-0.47l-1.66-7.18c-0.08-0.33,0.13-0.67,0.47-0.74
			c0.33-0.08,0.67,0.13,0.74,0.47l1.66,7.18C40.73,36.51,40.52,36.84,40.18,36.92z"/>
		<path class="st1" d="M45.17,32.92c-0.13,0.03-0.28,0.02-0.41-0.05l-6.65-3.18c-0.31-0.15-0.44-0.52-0.29-0.83
			c0.15-0.31,0.52-0.44,0.83-0.29l6.65,3.18c0.31,0.15,0.44,0.52,0.29,0.83C45.51,32.76,45.35,32.88,45.17,32.92z"/>
		<path class="st1" d="M38.52,29.74c-0.28,0.06-0.57-0.07-0.7-0.33c-0.15-0.31-0.02-0.68,0.29-0.83l6.63-3.22
			c0.31-0.15,0.68-0.02,0.83,0.29c0.15,0.31,0.02,0.68-0.29,0.83l-6.63,3.22C38.61,29.71,38.57,29.73,38.52,29.74z"/>
		<path class="st1" d="M38.52,29.74c-0.09,0.02-0.18,0.02-0.28,0c-0.33-0.08-0.54-0.41-0.47-0.74l1.62-7.19
			c0.07-0.33,0.41-0.55,0.74-0.47c0.33,0.08,0.54,0.41,0.47,0.74l-1.62,7.19C38.94,29.51,38.75,29.69,38.52,29.74z"/>
		<path class="st1" d="M38.53,29.74c-0.23,0.05-0.47-0.02-0.63-0.22l-4.61-5.75c-0.21-0.27-0.17-0.66,0.1-0.87
			c0.27-0.22,0.66-0.17,0.87,0.1l4.61,5.75c0.21,0.27,0.17,0.66-0.1,0.87C38.7,29.68,38.61,29.72,38.53,29.74z"/>
		<path class="st1" d="M38.53,29.74c-0.04,0.01-0.09,0.02-0.14,0.02l-7.37,0.02c-0.34,0-0.62-0.28-0.62-0.62
			c0-0.34,0.28-0.62,0.62-0.62l7.37-0.02c0.34,0,0.62,0.28,0.62,0.62C39.01,29.43,38.8,29.68,38.53,29.74z"/>
		<path class="st1" d="M33.94,35.51c-0.18,0.04-0.37,0-0.53-0.12c-0.27-0.21-0.31-0.6-0.1-0.87l4.58-5.77
			c0.21-0.27,0.6-0.31,0.87-0.1c0.27,0.21,0.31,0.6,0.1,0.87l-4.58,5.77C34.2,35.41,34.08,35.48,33.94,35.51z"/>
	</g>
	<g>
		<circle class="st0" cx="38.38" cy="29.13" r="2.93"/>
		<path class="st1" d="M39.14,32.4c-1.8,0.42-3.6-0.71-4.01-2.51c-0.42-1.8,0.71-3.6,2.51-4.01c1.8-0.42,3.6,0.71,4.01,2.51
			C42.06,30.18,40.94,31.98,39.14,32.4z M37.82,26.68c-1.35,0.31-2.2,1.67-1.89,3.02s1.67,2.2,3.02,1.89
			c1.35-0.31,2.2-1.67,1.89-3.02C40.53,27.21,39.17,26.37,37.82,26.68z"/>
	</g>
	<path class="st1" d="M24.72,29.65c-0.33,0.08-0.67-0.13-0.74-0.47l-0.81-3.5c-0.08-0.33,0.13-0.67,0.47-0.74
		c0.33-0.08,0.67,0.13,0.74,0.47l0.81,3.5C25.26,29.24,25.06,29.57,24.72,29.65z"/>
	<path class="st1" d="M27.1,39.94c-0.33,0.08-0.67-0.13-0.74-0.47l-1.63-7.07c-0.08-0.33,0.13-0.67,0.47-0.74
		c0.33-0.08,0.67,0.13,0.74,0.47l1.63,7.07C27.64,39.53,27.43,39.87,27.1,39.94z"/>
	<path class="st1" d="M18.29,28.5c-0.16,0.04-0.32,0.01-0.47-0.08c-0.29-0.18-0.38-0.56-0.2-0.86l4.5-7.21
		c0.18-0.29,0.56-0.38,0.86-0.2s0.38,0.56,0.2,0.86l-4.5,7.21C18.59,28.37,18.44,28.47,18.29,28.5z"/>
	<path class="st1" d="M31.36,43.58c-0.16,0.04-0.32,0.01-0.47-0.08c-0.29-0.18-0.38-0.56-0.2-0.86l4.3-6.88
		c0.18-0.29,0.56-0.38,0.86-0.2c0.29,0.18,0.38,0.56,0.2,0.86l-4.3,6.88C31.65,43.45,31.51,43.55,31.36,43.58z"/>
	<circle class="st1" cx="3.1" cy="27.56" r="0.72"/>
	<circle class="st1" cx="47.29" cy="17.35" r="0.72"/>
	<circle class="st1" cx="7.38" cy="46.09" r="0.72"/>
	<circle class="st1" cx="51.57" cy="35.88" r="0.72"/>
	<path class="st1" d="M31.38,19.15c-0.33,0.08-0.67-0.13-0.74-0.47l-0.74-3.22l-3.01,0.7l0.74,3.22c0.08,0.33-0.13,0.67-0.47,0.74
		s-0.67-0.13-0.74-0.47l-0.88-3.82c-0.08-0.33,0.13-0.67,0.47-0.74l4.22-0.98c0.33-0.08,0.67,0.13,0.74,0.47l0.88,3.82
		C31.92,18.74,31.71,19.07,31.38,19.15z"/>
	<path class="st1" d="M44.76,16.06c-0.33,0.08-0.67-0.13-0.74-0.47l-0.74-3.22l-1.95,0.45c-0.33,0.08-0.67-0.13-0.74-0.47
		c-0.08-0.33,0.13-0.67,0.47-0.74l2.56-0.59c0.33-0.08,0.67,0.13,0.74,0.47l0.88,3.82C45.3,15.65,45.09,15.98,44.76,16.06z"/>
	<path class="st1" d="M35.1,18.29c-0.33,0.08-0.67-0.13-0.74-0.47L33.47,14c-0.08-0.33,0.13-0.67,0.47-0.74l3.1-0.72
		c0.33-0.08,0.67,0.13,0.74,0.47c0.08,0.33-0.13,0.67-0.47,0.74l-2.49,0.58l0.74,3.22C35.64,17.88,35.43,18.21,35.1,18.29z"/>
</g>
</svg>
