<?xml version="1.0" encoding="utf-8"?>
<!-- Generator: Adobe Illustrator 24.0.0, SVG Export Plug-In . SVG Version: 6.00 Build 0)  -->
<svg version="1.1" id="Layer_1" xmlns="http://www.w3.org/2000/svg" xmlns:xlink="http://www.w3.org/1999/xlink" x="0px" y="0px"
	 viewBox="0 0 60 60" style="enable-background:new 0 0 60 60;" xml:space="preserve">
<style type="text/css">
	.st0{fill:#99C93E;}
	.st1{fill:#131F35;}
</style>
<rect x="28.1" y="42.23" class="st0" width="8.74" height="10.35"/>
<rect x="8.25" y="57.71" class="st0" width="43.17" height="2.27"/>
<rect x="28.1" y="6.02" class="st0" width="25.54" height="31.72"/>
<rect x="16.98" y="6.91" class="st0" width="3.44" height="30.04"/>
<path class="st1" d="M25.14,38.65h-9.21c-0.5,0-0.91-0.41-0.91-0.91s0.41-0.91,0.91-0.91h9.21c0.5,0,0.91,0.41,0.91,0.91
	S25.65,38.65,25.14,38.65z"/>
<path class="st1" d="M54.05,38.65H28.99c-0.5,0-0.91-0.41-0.91-0.91s0.41-0.91,0.91-0.91h24.15V6.93H7.41v29.89h4.56
	c0.5,0,0.91,0.41,0.91,0.91s-0.41,0.91-0.91,0.91H6.5c-0.5,0-0.91-0.41-0.91-0.91V6.02c0-0.5,0.41-0.91,0.91-0.91h47.55
	c0.5,0,0.91,0.41,0.91,0.91v31.72C54.96,38.24,54.55,38.65,54.05,38.65z"/>
<path class="st1" d="M54.67,0.15h-4.1c-0.5,0-0.91,0.41-0.91,0.91c0,0.5,0.41,0.91,0.91,0.91h4.1c1.93,0,3.51,1.68,3.51,3.75v31.71
	c0,2.14-1.65,3.88-3.69,3.88H37.8H22.2H5.51c-2.03,0-3.69-1.74-3.69-3.88V5.73c0-2.07,1.57-3.75,3.51-3.75H44.9
	c0.5,0,0.91-0.41,0.91-0.91c0-0.5-0.41-0.91-0.91-0.91H5.34C2.39,0.15,0,2.65,0,5.73v31.71c0,3.15,2.47,5.71,5.51,5.71H22.2v8.65
	h-7.67c-0.24,0-0.48,0.1-0.65,0.27l-4.97,5c-0.26,0.26-0.34,0.65-0.2,0.99c0.14,0.34,0.47,0.56,0.84,0.56h40.88
	c0.37,0,0.7-0.22,0.84-0.56c0.14-0.34,0.06-0.73-0.2-0.99l-4.97-5c-0.17-0.17-0.4-0.27-0.65-0.27H37.8v-8.65h16.68
	c3.04,0,5.51-2.56,5.51-5.71V5.73C60,2.65,57.61,0.15,54.67,0.15z M45.09,53.62l3.15,3.18H11.76l3.15-3.18h7.29h0.91h13.78h0.91
	H45.09z M35.98,51.8H24.02v-8.65h11.95V51.8z"/>
</svg>
