<?xml version="1.0" encoding="utf-8"?>
<!-- Generator: Adobe Illustrator 24.0.0, SVG Export Plug-In . SVG Version: 6.00 Build 0)  -->
<svg version="1.1" id="Layer_1" xmlns="http://www.w3.org/2000/svg" xmlns:xlink="http://www.w3.org/1999/xlink" x="0px" y="0px"
	 viewBox="0 0 60 60" style="enable-background:new 0 0 60 60;" xml:space="preserve">
<style type="text/css">
	.st0{fill:#99C93E;}
	.st1{fill:#131F35;}
	.st2{fill:none;}
	.st3{fill:#FFFFFF;}
</style>
<rect x="45.62" y="14.4" class="st0" width="3.44" height="31.66"/>
<path class="st1" d="M54.44,51.46H5.56c-3.03,0-5.5-2.56-5.5-5.7V14.11c0-3.07,2.39-5.57,5.33-5.57h39.49c0.5,0,0.91,0.41,0.91,0.91
	s-0.41,0.91-0.91,0.91H5.38c-1.93,0-3.5,1.68-3.5,3.74v31.65c0,2.14,1.65,3.87,3.68,3.87h48.89c2.03,0,3.68-1.74,3.68-3.87V14.11
	c0-2.06-1.57-3.74-3.5-3.74h-4.09c-0.5,0-0.91-0.41-0.91-0.91s0.41-0.91,0.91-0.91h4.09c2.94,0,5.33,2.5,5.33,5.57v31.65
	C59.95,48.9,57.48,51.46,54.44,51.46z"/>
<path class="st1" d="M25.15,46.97h-9.19c-0.5,0-0.91-0.41-0.91-0.91c0-0.5,0.41-0.91,0.91-0.91h9.19c0.5,0,0.91,0.41,0.91,0.91
	C26.06,46.56,25.66,46.97,25.15,46.97z"/>
<path class="st1" d="M54,46.97H28.99c-0.5,0-0.91-0.41-0.91-0.91c0-0.5,0.41-0.91,0.91-0.91h24.1V15.31H7.45v29.83h4.56
	c0.5,0,0.91,0.41,0.91,0.91c0,0.5-0.41,0.91-0.91,0.91H6.54c-0.5,0-0.91-0.41-0.91-0.91V14.4c0-0.5,0.41-0.91,0.91-0.91H54
	c0.5,0,0.91,0.41,0.91,0.91v31.66C54.92,46.56,54.51,46.97,54,46.97z"/>
<path class="st1" d="M27.22,21.84c0-0.8,0-1.61,0-2.41c0-0.6,0.21-0.82,0.8-0.83c1-0.01,1.99-0.01,2.99,0c0.59,0,0.8,0.23,0.81,0.82
	c0,0.7,0.02,1.41-0.01,2.11c-0.01,0.27,0.08,0.39,0.33,0.46c0.2,0.05,0.39,0.13,0.57,0.22c0.6,0.27,0.59,0.27,1.07-0.2
	c0.42-0.42,0.83-0.83,1.25-1.25c0.42-0.42,0.74-0.42,1.15-0.01c0.71,0.7,1.41,1.41,2.12,2.12c0.4,0.41,0.41,0.72,0.01,1.12
	c-0.48,0.49-0.96,0.99-1.47,1.46c-0.25,0.23-0.27,0.42-0.1,0.68c0.09,0.15,0.16,0.32,0.22,0.49c0.23,0.61,0.23,0.62,0.86,0.62
	c0.63,0,1.25-0.01,1.88,0c0.51,0.01,0.72,0.22,0.73,0.73c0.01,1.02,0.01,2.05,0,3.07c0,0.57-0.22,0.79-0.79,0.8
	c-0.72,0.01-1.43,0.01-2.15,0c-0.25-0.01-0.36,0.07-0.44,0.31c-0.1,0.31-0.24,0.62-0.38,0.92c-0.09,0.19-0.08,0.31,0.08,0.46
	c0.53,0.5,1.04,1.02,1.55,1.54c0.4,0.41,0.41,0.72,0.01,1.12c-0.71,0.72-1.42,1.43-2.14,2.14c-0.39,0.39-0.7,0.39-1.09,0.01
	c-0.52-0.51-1.04-1.02-1.54-1.55c-0.16-0.16-0.29-0.2-0.5-0.09c-0.29,0.15-0.6,0.28-0.92,0.38c-0.24,0.08-0.3,0.2-0.29,0.44
	c0.02,0.7,0.01,1.41,0,2.11c0,0.6-0.22,0.82-0.8,0.83c-1,0-1.99,0-2.99,0c-0.58,0-0.8-0.23-0.81-0.82c0-0.72-0.01-1.43,0.01-2.15
	c0.01-0.23-0.07-0.34-0.29-0.4c-0.2-0.05-0.39-0.13-0.57-0.21c-0.63-0.28-0.63-0.28-1.14,0.22c-0.42,0.42-0.83,0.84-1.25,1.25
	c-0.4,0.39-0.7,0.39-1.09,0c-0.73-0.72-1.45-1.44-2.17-2.17c-0.37-0.37-0.36-0.69,0-1.07c0.52-0.53,1.04-1.06,1.58-1.57
	c0.16-0.15,0.18-0.27,0.08-0.46c-0.15-0.3-0.28-0.6-0.38-0.92c-0.08-0.23-0.19-0.32-0.44-0.31c-0.69,0.02-1.38,0.01-2.07,0.01
	c-0.66,0-0.87-0.21-0.87-0.87c0-0.98,0-1.97,0-2.95c0-0.56,0.21-0.77,0.76-0.77c0.73-0.01,1.46-0.01,2.19,0
	c0.23,0,0.34-0.07,0.42-0.29c0.11-0.33,0.24-0.65,0.4-0.95c0.1-0.2,0.07-0.31-0.09-0.46c-0.52-0.51-1.04-1.02-1.55-1.54
	c-0.4-0.4-0.4-0.72,0-1.12c0.71-0.72,1.42-1.43,2.14-2.14c0.39-0.38,0.7-0.38,1.09,0.01c0.53,0.52,1.06,1.04,1.57,1.58
	c0.14,0.14,0.25,0.16,0.43,0.07C26.38,22.19,26.79,22.03,27.22,21.84z M22,23.45c0.01,0.02,0.01,0.03,0.02,0.04
	c0.52,0.53,1.05,1.05,1.57,1.58c0.36,0.37,0.37,0.56,0.15,1.03c-0.26,0.54-0.51,1.09-0.7,1.65c-0.22,0.63-0.31,0.73-0.98,0.73
	c-0.72,0-1.45,0-2.18,0c0,0.72,0,1.39,0,2.09c0.75,0,1.48,0,2.21,0c0.61,0,0.73,0.13,0.93,0.69c0.19,0.55,0.42,1.1,0.68,1.62
	c0.28,0.57,0.28,0.72-0.18,1.18c-0.51,0.51-1.03,1.02-1.53,1.52c0.51,0.5,0.99,0.98,1.5,1.48c0.51-0.52,1.06-1.07,1.61-1.62
	c0.34-0.33,0.54-0.34,0.96-0.14c0.6,0.27,1.21,0.53,1.83,0.77c0.45,0.17,0.58,0.3,0.58,0.77c0.01,0.69,0.01,1.38,0,2.07
	c0,0.21,0.06,0.3,0.28,0.29c0.51-0.01,1.02-0.01,1.53,0c0.25,0.01,0.29-0.11,0.29-0.33c-0.01-0.64,0-1.28,0-1.92
	c0-0.63,0.11-0.73,0.68-0.93c0.56-0.2,1.12-0.43,1.65-0.69c0.51-0.24,0.69-0.24,1.09,0.15c0.53,0.53,1.06,1.07,1.53,1.54
	c0.51-0.51,0.99-0.99,1.49-1.48c-0.5-0.5-1.03-1.02-1.57-1.56c-0.36-0.37-0.37-0.56-0.15-1.03c0.25-0.52,0.49-1.04,0.67-1.58
	c0.24-0.71,0.33-0.81,1.08-0.81c0.7,0,1.4,0,2.1,0c0-0.72,0-1.39,0-2.05c-0.05-0.02-0.07-0.03-0.1-0.03c-0.73,0-1.46,0-2.19-0.01
	c-0.53,0-0.67-0.14-0.85-0.65c-0.2-0.56-0.42-1.12-0.69-1.66c-0.28-0.57-0.28-0.71,0.18-1.18c0.51-0.51,1.03-1.02,1.51-1.49
	c-0.51-0.51-0.99-1-1.48-1.49c-0.52,0.52-1.06,1.06-1.6,1.6c-0.28,0.28-0.57,0.33-0.93,0.17c-0.64-0.29-1.28-0.56-1.94-0.81
	c-0.33-0.13-0.51-0.32-0.51-0.67c0-0.31,0-0.61,0-0.92c0-0.49,0-0.99,0-1.48c-0.72,0-1.4,0-2.1,0c0,0.77,0,1.5,0,2.24
	c0,0.57-0.13,0.7-0.65,0.88c-0.57,0.2-1.14,0.44-1.69,0.7c-0.5,0.24-0.69,0.24-1.09-0.16c-0.53-0.53-1.06-1.07-1.56-1.58
	C22.98,22.49,22.5,22.97,22,23.45z"/>
<path class="st2" d="M28.51,25c-2.2,0.52-3.73,2.5-3.62,4.66c0.12,2.35,1.77,4.17,4.07,4.47c0.92,0.12,1.81-0.04,2.64-0.46
	c0.28-0.14,0.43-0.37,0.36-0.69c-0.06-0.29-0.26-0.48-0.56-0.49c-0.04,0-0.07,0.01-0.11,0.02c-0.5,0.28-1.07,0.46-1.69,0.46
	c-1.1,0-2.07-0.53-2.7-1.33c-0.01-0.01-0.02-0.02-0.02-0.03c-0.1-0.13-0.19-0.27-0.27-0.42c-0.03-0.05-0.06-0.08-0.09-0.13
	c-0.02-0.04-0.03-0.08-0.05-0.12c-0.02-0.05-0.05-0.11-0.07-0.16c-0.07-0.18-0.13-0.36-0.17-0.55c0-0.01,0-0.01,0-0.02
	c-0.09-0.45-0.1-0.92,0-1.38c0-0.02,0.01-0.03,0.01-0.05c0.04-0.18,0.09-0.35,0.16-0.52c0.03-0.09,0.08-0.17,0.12-0.26
	c0.04-0.08,0.08-0.17,0.13-0.25c0.07-0.12,0.15-0.24,0.24-0.35c0.01-0.02,0.03-0.03,0.04-0.05c0.63-0.78,1.59-1.29,2.67-1.29
	c1.91,0,3.45,1.54,3.45,3.45c0,0.68-0.21,1.32-0.55,1.86c0,0.25,0.1,0.45,0.34,0.55c0.36,0.16,0.71,0.01,0.87-0.44
	c0.22-0.62,0.24-1.31,0.42-1.94c-0.03-0.01,0.06,0.03,0.03,0.02C34.23,26.61,31.38,24.31,28.51,25z"/>
<path class="st0" d="M26.52,28c0.04-0.08,0.09-0.17,0.13-0.25C26.6,27.84,26.56,27.92,26.52,28z"/>
<path class="st0" d="M26.23,28.78c0.04-0.18,0.1-0.35,0.16-0.52C26.33,28.43,26.28,28.6,26.23,28.78z"/>
<path class="st0" d="M26.9,31.64c-0.01-0.01-0.02-0.02-0.02-0.03C26.88,31.62,26.89,31.63,26.9,31.64z"/>
<path class="st0" d="M26.4,30.77c-0.07-0.18-0.13-0.36-0.17-0.55C26.27,30.41,26.32,30.59,26.4,30.77z"/>
<path class="st0" d="M26.52,31.06c0.03,0.05,0.06,0.09,0.09,0.13c-0.05-0.08-0.1-0.16-0.14-0.25C26.48,30.98,26.5,31.02,26.52,31.06
	z"/>
<path class="st0" d="M26.89,27.4c0.01-0.02,0.03-0.03,0.04-0.05C26.92,27.37,26.9,27.39,26.89,27.4z"/>
<path class="st0" d="M39.07,28.48c-0.73,0-1.46,0-2.19-0.01c-0.53,0-0.67-0.14-0.85-0.65c-0.2-0.56-0.42-1.12-0.69-1.66
	c-0.28-0.57-0.28-0.71,0.18-1.18c0.51-0.51,1.03-1.02,1.51-1.49c-0.51-0.51-0.99-1-1.48-1.49c-0.52,0.52-1.06,1.06-1.6,1.6
	c-0.28,0.28-0.57,0.33-0.93,0.17c-0.64-0.29-1.28-0.56-1.94-0.81c-0.33-0.13-0.51-0.32-0.51-0.67c0-0.31,0-0.61,0-0.92
	c0-0.49,0-0.99,0-1.48c-0.72,0-1.4,0-2.1,0c0,0.77,0,1.5,0,2.24c0,0.57-0.13,0.7-0.65,0.88c-0.57,0.2-1.14,0.44-1.69,0.7
	c-0.5,0.24-0.69,0.24-1.09-0.16c-0.53-0.53-1.06-1.07-1.56-1.58c-0.51,0.5-0.99,0.98-1.48,1.47c0.01,0.02,0.01,0.03,0.02,0.04
	c0.52,0.53,1.05,1.05,1.57,1.58c0.36,0.37,0.37,0.56,0.15,1.03c-0.26,0.54-0.51,1.09-0.7,1.65c-0.22,0.63-0.31,0.73-0.98,0.73
	c-0.72,0-1.45,0-2.18,0c0,0.72,0,1.39,0,2.09c0.75,0,1.48,0,2.21,0c0.61,0,0.73,0.13,0.93,0.69c0.19,0.55,0.42,1.1,0.68,1.62
	c0.28,0.57,0.28,0.72-0.18,1.18c-0.51,0.51-1.03,1.02-1.53,1.52c0.51,0.5,0.99,0.98,1.5,1.48c0.51-0.52,1.06-1.07,1.61-1.62
	c0.34-0.33,0.54-0.34,0.96-0.14c0.6,0.27,1.21,0.53,1.83,0.77c0.45,0.17,0.58,0.3,0.58,0.77c0.01,0.69,0.01,1.38,0,2.07
	c0,0.21,0.06,0.3,0.28,0.29c0.51-0.01,1.02-0.01,1.53,0c0.25,0.01,0.29-0.11,0.29-0.33c-0.01-0.64,0-1.28,0-1.92
	c0-0.63,0.11-0.73,0.68-0.93c0.56-0.2,1.12-0.43,1.65-0.69c0.51-0.24,0.69-0.24,1.09,0.15c0.53,0.53,1.06,1.07,1.53,1.54
	c0.51-0.51,0.99-0.99,1.49-1.48c-0.5-0.5-1.03-1.02-1.57-1.56c-0.36-0.37-0.37-0.56-0.15-1.03c0.25-0.52,0.49-1.04,0.67-1.58
	c0.24-0.71,0.33-0.81,1.08-0.81c0.7,0,1.4,0,2.1,0c0-0.72,0-1.39,0-2.05C39.11,28.5,39.09,28.48,39.07,28.48z M34.13,29.55
	c-0.18,0.63-0.2,1.32-0.42,1.94c-0.16,0.45-0.51,0.6-0.87,0.44c-0.24-0.11-0.35-0.3-0.34-0.55c-0.3,0.47-0.72,0.86-1.21,1.13
	c0.04-0.01,0.08-0.02,0.11-0.02c0.3,0.01,0.5,0.2,0.56,0.49c0.07,0.32-0.08,0.55-0.36,0.69c-0.83,0.42-1.72,0.58-2.64,0.46
	c-2.31-0.3-3.96-2.12-4.07-4.47c-0.11-2.17,1.42-4.14,3.62-4.66c2.87-0.68,5.72,1.62,5.66,4.56C34.2,29.57,34.1,29.54,34.13,29.55z"
	/>
<path class="st0" d="M26.22,28.83c-0.1,0.45-0.09,0.92,0,1.38c-0.04-0.22-0.07-0.45-0.07-0.69C26.15,29.28,26.18,29.05,26.22,28.83z
	"/>
<path class="st3" d="M26.47,30.94c-0.03-0.05-0.05-0.11-0.07-0.16C26.42,30.83,26.44,30.88,26.47,30.94z"/>
<path class="st3" d="M29.6,26.07c-1.08,0-2.04,0.51-2.67,1.29c0.11-0.14,0.24-0.27,0.38-0.38c1.24-1.05,3.02-1.11,4.24-0.15
	c1.31,1.03,1.69,2.55,1.03,4.16c-0.06,0.14-0.08,0.27-0.08,0.39c0.34-0.54,0.55-1.17,0.55-1.86C33.05,27.61,31.51,26.07,29.6,26.07z
	"/>
<path class="st3" d="M26.88,31.61c-0.1-0.13-0.19-0.27-0.27-0.42C26.68,31.33,26.77,31.48,26.88,31.61z"/>
<path class="st3" d="M26.65,27.76c0.07-0.12,0.15-0.24,0.24-0.35C26.8,27.52,26.72,27.63,26.65,27.76z"/>
<path class="st3" d="M26.4,28.26c0.04-0.09,0.08-0.17,0.12-0.26C26.47,28.09,26.43,28.17,26.4,28.26z"/>
<path class="st3" d="M26.9,31.64c0.63,0.8,1.6,1.33,2.7,1.33c0.62,0,1.19-0.18,1.69-0.46c-0.13,0.02-0.27,0.06-0.4,0.12
	C29.41,33.24,27.86,32.83,26.9,31.64z"/>
<path class="st3" d="M26.23,30.22c0-0.01,0-0.01,0-0.02C26.22,30.21,26.22,30.22,26.23,30.22z"/>
<path class="st3" d="M26.22,28.83c0-0.02,0.01-0.03,0.01-0.05C26.23,28.8,26.23,28.81,26.22,28.83z"/>
<path class="st1" d="M34.16,29.56c-0.18,0.63-0.23,1.3-0.45,1.92c-0.16,0.45-0.51,0.6-0.87,0.44c-0.35-0.16-0.44-0.5-0.26-0.95
	c0.65-1.61,0.27-3.13-1.03-4.16c-1.22-0.96-3-0.89-4.24,0.15c-1.17,0.98-1.51,2.74-0.79,4.08c0.87,1.63,2.68,2.28,4.38,1.57
	c0.16-0.07,0.34-0.14,0.51-0.13c0.3,0.01,0.5,0.2,0.56,0.49c0.07,0.32-0.08,0.55-0.36,0.69c-0.83,0.42-1.72,0.58-2.64,0.46
	c-2.31-0.3-3.96-2.12-4.07-4.47c-0.11-2.17,1.42-4.14,3.62-4.66C31.38,24.31,34.23,26.61,34.16,29.56
	C34.2,29.57,34.13,29.55,34.16,29.56z"/>
</svg>
